name rise49.8558peak67.6521fall70.3087.mot
datacolumns 19
datarows 44
range 0.000000 0.071665
endheader
time	ground_force1_vx	ground_force1_vy	ground_force1_vz	ground_force1_px	ground_force1_py	ground_force1_pz	ground_force2_vx	ground_force2_vy	ground_force2_vz	ground_force2_px	ground_force2_py	ground_force2_pz	ground_torque1_x	ground_torque1_y	ground_torque1_z	ground_torque2_x	ground_torque2_y	ground_torque2_z	
0.000000	-36.710047	788.759028	49.870119	0.127979	0.000000	0.112546	0.000000	0.000000	0.000000	0.000000	0.000000	0.000000	0.000000	27.573504	0.000000	0.000000	0.000000	0.000000	
0.001665	-37.017628	788.759399	49.895219	0.127828	0.000000	0.112336	0.000000	0.000000	0.000000	0.000000	0.000000	0.000000	0.000000	27.457367	0.000000	0.000000	0.000000	0.000000	
0.003330	-37.322381	788.760153	49.920217	0.127663	0.000000	0.112126	0.000000	0.000000	0.000000	0.000000	0.000000	0.000000	0.000000	27.341289	0.000000	0.000000	0.000000	0.000000	
0.005003	-37.624585	788.764558	49.946732	0.127485	0.000000	0.111915	0.000000	0.000000	0.000000	0.000000	0.000000	0.000000	0.000000	27.225282	0.000000	0.000000	0.000000	0.000000	
0.006674	-37.924910	788.775955	49.976457	0.127292	0.000000	0.111704	0.000000	0.000000	0.000000	0.000000	0.000000	0.000000	0.000000	27.109241	0.000000	0.000000	0.000000	0.000000	
0.008336	-38.224295	788.797597	50.011075	0.127085	0.000000	0.111494	0.000000	0.000000	0.000000	0.000000	0.000000	0.000000	0.000000	26.992976	0.000000	0.000000	0.000000	0.000000	
0.010004	-38.523818	788.832519	50.052182	0.126862	0.000000	0.111285	0.000000	0.000000	0.000000	0.000000	0.000000	0.000000	0.000000	26.876253	0.000000	0.000000	0.000000	0.000000	
0.011669	-38.824585	788.883427	50.101232	0.126624	0.000000	0.111077	0.000000	0.000000	0.000000	0.000000	0.000000	0.000000	0.000000	26.758830	0.000000	0.000000	0.000000	0.000000	
0.013335	-39.127631	788.952626	50.159489	0.126369	0.000000	0.110871	0.000000	0.000000	0.000000	0.000000	0.000000	0.000000	0.000000	26.640482	0.000000	0.000000	0.000000	0.000000	
0.015000	-39.433850	789.041980	50.228003	0.126098	0.000000	0.110667	0.000000	0.000000	0.000000	0.000000	0.000000	0.000000	0.000000	26.521028	0.000000	0.000000	0.000000	0.000000	
0.016665	-39.743940	789.152897	50.307599	0.125810	0.000000	0.110465	0.000000	0.000000	0.000000	0.000000	0.000000	0.000000	0.000000	26.400346	0.000000	0.000000	0.000000	0.000000	
0.018332	-40.058378	789.286351	50.398883	0.125504	0.000000	0.110267	0.000000	0.000000	0.000000	0.000000	0.000000	0.000000	0.000000	26.278383	0.000000	0.000000	0.000000	0.000000	
0.020005	-40.377416	789.442911	50.502258	0.125181	0.000000	0.110073	0.000000	0.000000	0.000000	0.000000	0.000000	0.000000	0.000000	26.155155	0.000000	0.000000	0.000000	0.000000	
0.021664	-40.701090	789.622802	50.617949	0.124839	0.000000	0.109882	0.000000	0.000000	0.000000	0.000000	0.000000	0.000000	0.000000	26.030749	0.000000	0.000000	0.000000	0.000000	
0.023331	-41.029247	789.825953	50.746032	0.124479	0.000000	0.109696	0.000000	0.000000	0.000000	0.000000	0.000000	0.000000	0.000000	25.905309	0.000000	0.000000	0.000000	0.000000	
0.025004	-41.361583	790.052070	50.886467	0.124101	0.000000	0.109514	0.000000	0.000000	0.000000	0.000000	0.000000	0.000000	0.000000	25.779032	0.000000	0.000000	0.000000	0.000000	
0.026669	-41.697678	790.300687	51.039126	0.123703	0.000000	0.109337	0.000000	0.000000	0.000000	0.000000	0.000000	0.000000	0.000000	25.652151	0.000000	0.000000	0.000000	0.000000	
0.028337	-42.037041	790.571222	51.203825	0.123285	0.000000	0.109166	0.000000	0.000000	0.000000	0.000000	0.000000	0.000000	0.000000	25.524926	0.000000	0.000000	0.000000	0.000000	
0.029997	-42.379146	790.863023	51.380345	0.122849	0.000000	0.109000	0.000000	0.000000	0.000000	0.000000	0.000000	0.000000	0.000000	25.397627	0.000000	0.000000	0.000000	0.000000	
0.031665	-42.723473	791.175400	51.568450	0.122392	0.000000	0.108841	0.000000	0.000000	0.000000	0.000000	0.000000	0.000000	0.000000	25.270528	0.000000	0.000000	0.000000	0.000000	
0.033331	-43.069527	791.507646	51.767904	0.121916	0.000000	0.108687	0.000000	0.000000	0.000000	0.000000	0.000000	0.000000	0.000000	25.143893	0.000000	0.000000	0.000000	0.000000	
0.034999	-43.416869	791.859051	51.978473	0.121419	0.000000	0.108540	0.000000	0.000000	0.000000	0.000000	0.000000	0.000000	0.000000	25.017970	0.000000	0.000000	0.000000	0.000000	
0.036663	-43.765125	792.228907	52.199931	0.120902	0.000000	0.108400	0.000000	0.000000	0.000000	0.000000	0.000000	0.000000	0.000000	24.892989	0.000000	0.000000	0.000000	0.000000	
0.038336	-44.113997	792.616496	52.432055	0.120365	0.000000	0.108267	0.000000	0.000000	0.000000	0.000000	0.000000	0.000000	0.000000	24.769154	0.000000	0.000000	0.000000	0.000000	
0.040004	-44.463261	793.021088	52.674626	0.119808	0.000000	0.108141	0.000000	0.000000	0.000000	0.000000	0.000000	0.000000	0.000000	24.646643	0.000000	0.000000	0.000000	0.000000	
0.041673	-44.812768	793.441920	52.927415	0.119230	0.000000	0.108022	0.000000	0.000000	0.000000	0.000000	0.000000	0.000000	0.000000	24.525611	0.000000	0.000000	0.000000	0.000000	
0.043332	-45.162435	793.878180	53.190178	0.118632	0.000000	0.107910	0.000000	0.000000	0.000000	0.000000	0.000000	0.000000	0.000000	24.406190	0.000000	0.000000	0.000000	0.000000	
0.045000	-45.512238	794.328993	53.462648	0.118014	0.000000	0.107806	0.000000	0.000000	0.000000	0.000000	0.000000	0.000000	0.000000	24.288489	0.000000	0.000000	0.000000	0.000000	
0.046686	-45.862200	794.793401	53.744525	0.117375	0.000000	0.107710	0.000000	0.000000	0.000000	0.000000	0.000000	0.000000	0.000000	24.172601	0.000000	0.000000	0.000000	0.000000	
0.048330	-46.212382	795.270349	54.035471	0.116717	0.000000	0.107621	0.000000	0.000000	0.000000	0.000000	0.000000	0.000000	0.000000	24.058603	0.000000	0.000000	0.000000	0.000000	
0.050001	-46.562873	795.758677	54.335103	0.116038	0.000000	0.107540	0.000000	0.000000	0.000000	0.000000	0.000000	0.000000	0.000000	23.946560	0.000000	0.000000	0.000000	0.000000	
0.051668	-46.913781	796.257108	54.642987	0.115340	0.000000	0.107467	0.000000	0.000000	0.000000	0.000000	0.000000	0.000000	0.000000	23.836527	0.000000	0.000000	0.000000	0.000000	
0.053335	-47.265227	796.764240	54.958641	0.114623	0.000000	0.107401	0.000000	0.000000	0.000000	0.000000	0.000000	0.000000	0.000000	23.728554	0.000000	0.000000	0.000000	0.000000	
0.055004	-47.617340	797.278551	55.281527	0.113886	0.000000	0.107343	0.000000	0.000000	0.000000	0.000000	0.000000	0.000000	0.000000	23.622682	0.000000	0.000000	0.000000	0.000000	
0.056669	-47.970257	797.798392	55.611058	0.113130	0.000000	0.107293	0.000000	0.000000	0.000000	0.000000	0.000000	0.000000	0.000000	23.518950	0.000000	0.000000	0.000000	0.000000	
0.058335	-48.324114	798.321988	55.946597	0.112356	0.000000	0.107249	0.000000	0.000000	0.000000	0.000000	0.000000	0.000000	0.000000	23.417392	0.000000	0.000000	0.000000	0.000000	
0.059996	-48.679054	798.847449	56.287457	0.111563	0.000000	0.107213	0.000000	0.000000	0.000000	0.000000	0.000000	0.000000	0.000000	23.318039	0.000000	0.000000	0.000000	0.000000	
0.061662	-49.035222	799.372765	56.632912	0.110753	0.000000	0.107184	0.000000	0.000000	0.000000	0.000000	0.000000	0.000000	0.000000	23.220916	0.000000	0.000000	0.000000	0.000000	
0.063331	-49.392772	799.895818	56.982191	0.109926	0.000000	0.107162	0.000000	0.000000	0.000000	0.000000	0.000000	0.000000	0.000000	23.126046	0.000000	0.000000	0.000000	0.000000	
0.064996	-49.751863	800.414382	57.334490	0.109081	0.000000	0.107147	0.000000	0.000000	0.000000	0.000000	0.000000	0.000000	0.000000	23.033446	0.000000	0.000000	0.000000	0.000000	
0.066664	-50.112667	800.926129	57.688971	0.108221	0.000000	0.107138	0.000000	0.000000	0.000000	0.000000	0.000000	0.000000	0.000000	22.943128	0.000000	0.000000	0.000000	0.000000	
0.068336	-50.475367	801.428633	58.044769	0.107344	0.000000	0.107135	0.000000	0.000000	0.000000	0.000000	0.000000	0.000000	0.000000	22.855099	0.000000	0.000000	0.000000	0.000000	
0.069996	-50.840161	801.919376	58.400992	0.106453	0.000000	0.107138	0.000000	0.000000	0.000000	0.000000	0.000000	0.000000	0.000000	22.769360	0.000000	0.000000	0.000000	0.000000	
0.071665	-51.207258	802.395745	58.756726	0.105547	0.000000	0.107147	0.000000	0.000000	0.000000	0.000000	0.000000	0.000000	0.000000	22.685903	0.000000	0.000000	0.000000	0.000000	
